<svg width="19" height="20" viewBox="0 0 19 20" fill="none" xmlns="http://www.w3.org/2000/svg">
<g id="icon">
<path id="Vector 55" d="M1.19995 10.1521V8.20001C1.19995 7.64773 1.64767 7.20001 2.19995 7.20001H16.7C17.2522 7.20001 17.7 7.64773 17.7 8.20001V10.0754C17.7 10.4859 17.4425 10.8478 17.033 10.8757C16.6408 10.9025 16.105 10.885 15.45 10.7556C13.95 10.4593 13.575 10.163 11.7 10.7556C9.82495 11.3482 9.44995 11.3482 7.94995 10.7556C6.44995 10.163 6.07495 10.163 4.19995 10.7556C3.17628 11.0791 2.32726 11.053 1.77208 10.9411C1.40825 10.8677 1.19995 10.5232 1.19995 10.1521Z" fill="#787878" stroke="#666666" stroke-width="1.5" stroke-linecap="round"/>
<path id="Vector 58" d="M2.69995 11.2V16.4C2.69995 17.5046 3.59538 18.4 4.69995 18.4H14.2C15.3045 18.4 16.2 17.5046 16.2 16.4V11.2" stroke="#666666" stroke-width="1.5" stroke-linecap="round"/>
<path id="Vector 56" d="M9.44995 7.20005V4.80005" stroke="#666666" stroke-width="1.5" stroke-linecap="round"/>
<path id="Vector 57" d="M8.22435 2.79675L8.60778 2.04693C8.95908 1.35995 9.94082 1.35995 10.2921 2.04693L10.6756 2.79675C11.1439 3.71269 10.4787 4.80002 9.44995 4.80002C8.4212 4.80002 7.75597 3.71269 8.22435 2.79675Z" fill="#787878" stroke="#666666" stroke-width="1.5" stroke-linecap="round"/>
</g>
</svg>
